<svg xmlns="http://www.w3.org/2000/svg" version="1.1" xmlns:xlink="http://www.w3.org/1999/xlink" xmlns:svgjs="http://svgjs.com/svgjs" width="512" height="512" x="0" y="0" viewBox="0 0 480 480" style="enable-background:new 0 0 512 512" xml:space="preserve" class=""><g>
<g xmlns="http://www.w3.org/2000/svg">
	<g>
		<g>
			<path d="M424,464h-31.2L392,16h32c4.418,0,8-3.582,8-8s-3.582-8-8-8H56c-4.418,0-8,3.582-8,8s3.582,8,8,8h32l-0.8,448H56     c-4.418,0-8,3.582-8,8s3.582,8,8,8h368c4.418,0,8-3.582,8-8S428.418,464,424,464z M152,16h176v112.552     c-0.01,13.591-2.687,27.048-7.88,39.608c-0.561-0.064-1.127-0.064-1.688,0l-23.52,4.696c-36.245,7.296-73.58,7.296-109.824,0     L161.6,168.16c-0.561-0.064-1.127-0.064-1.688,0c-5.203-12.558-7.891-26.015-7.912-39.608V16z M310.72,186.016     c-14.342,21.662-36.285,37.159-61.496,43.432L240,231.752l-9.224-2.304c-25.211-6.273-47.154-21.77-61.496-43.432l12.664,2.528     c19.114,3.839,38.561,5.776,58.056,5.784c19.495-0.008,38.942-1.945,58.056-5.784L310.72,186.016z M136,464h-32.8L104,16h32     v112.552c-0.034,49.181,30.009,93.382,75.752,111.448c-45.743,18.066-75.786,62.267-75.752,111.448V464z M328,464H152v-12.552     C161.776,442.4,201.288,408,240,408c38.4,0,78.12,34.328,88,43.456V464z M328,430.296C309.648,415.376,275.296,392,240,392     c-21.512,0-45.208,8.528-70.4,25.344c-0.168,0.12-9,6.04-17.6,12.88v-78.776c-0.055-47.741,32.447-89.37,78.776-100.896     l9.224-2.304l9.224,2.304c46.329,11.526,78.831,53.155,78.776,100.896V430.296z M344,464V351.448     c0.034-49.181-30.009-93.382-75.752-111.448c45.743-18.066,75.786-62.267,75.752-111.448V16h32l0.8,448H344z" fill="#454b41" data-original="#000000" class=""></path>
</svg>